<?xml version="1.0" standalone="no"?>
<svg xmlns="http://www.w3.org/2000/svg" viewBox="0 0 1440 320">
<defs>
        <linearGradient id="sw-gradient-0" x1="0" x2="0" y1="1" y2="0">
            <stop stop-color="rgba(243, 62, 236.05, 1)" offset="0%" />
            <stop stop-color="#1f042d" offset="100%" />
        </linearGradient>
    </defs>
    <path fill="url(#sw-gradient-0)" fill-opacity="0.9"
        d="M0,128L60,160C120,192,240,256,360,282.7C480,309,600,299,720,261.3C840,224,960,160,1080,165.3C1200,171,1320,245,1380,282.7L1440,320L1440,0L1380,0C1320,0,1200,0,1080,0C960,0,840,0,720,0C600,0,480,0,360,0C240,0,120,0,60,0L0,0Z">
    </path>
</svg>