<?xml version="1.0" standalone="no"?>
<svg xmlns:xlink="http://www.w3.org/1999/xlink" id="wave" style="transform:rotate(180deg); transition: 0.3s"
    viewBox="0 0 1440 340" version="1.1" xmlns="http://www.w3.org/2000/svg">
    <defs>
        <linearGradient id="sw-gradient-0" x1="0" x2="0" y1="1" y2="0">
            <stop stop-color="rgba(243, 62, 236.05, 1)" offset="0%" />
            <stop stop-color="rgba(115.572, 11, 255, 1)" offset="100%" />
        </linearGradient>
    </defs>
    <path style="transform:translate(0, 0px); opacity:1" fill="url(#sw-gradient-0)"
        d="M0,136L40,124.7C80,113,160,91,240,73.7C320,57,400,45,480,68C560,91,640,147,720,192.7C800,238,880,272,960,272C1040,272,1120,238,1200,187C1280,136,1360,68,1440,56.7C1520,45,1600,91,1680,124.7C1760,159,1840,181,1920,164.3C2000,147,2080,91,2160,68C2240,45,2320,57,2400,85C2480,113,2560,159,2640,181.3C2720,204,2800,204,2880,181.3C2960,159,3040,113,3120,130.3C3200,147,3280,227,3360,255C3440,283,3520,261,3600,249.3C3680,238,3760,238,3840,209.7C3920,181,4000,125,4080,102C4160,79,4240,91,4320,124.7C4400,159,4480,215,4560,232.3C4640,249,4720,227,4800,204C4880,181,4960,159,5040,175.7C5120,193,5200,249,5280,260.7C5360,272,5440,238,5520,187C5600,136,5680,68,5720,34L5760,0L5760,340L5720,340C5680,340,5600,340,5520,340C5440,340,5360,340,5280,340C5200,340,5120,340,5040,340C4960,340,4880,340,4800,340C4720,340,4640,340,4560,340C4480,340,4400,340,4320,340C4240,340,4160,340,4080,340C4000,340,3920,340,3840,340C3760,340,3680,340,3600,340C3520,340,3440,340,3360,340C3280,340,3200,340,3120,340C3040,340,2960,340,2880,340C2800,340,2720,340,2640,340C2560,340,2480,340,2400,340C2320,340,2240,340,2160,340C2080,340,2000,340,1920,340C1840,340,1760,340,1680,340C1600,340,1520,340,1440,340C1360,340,1280,340,1200,340C1120,340,1040,340,960,340C880,340,800,340,720,340C640,340,560,340,480,340C400,340,320,340,240,340C160,340,80,340,40,340L0,340Z" />
</svg>